<svg xmlns="http://www.w3.org/2000/svg" xmlns:xlink="http://www.w3.org/1999/xlink" width="188.635" height="103.346" viewBox="0 0 188.635 103.346">
  <defs>
    <filter id="Rectangle_Copy" x="0" y="0" width="188.635" height="103.346" filterUnits="userSpaceOnUse">
      <feOffset dy="2" input="SourceAlpha"/>
      <feGaussianBlur stdDeviation="2" result="blur"/>
      <feFlood flood-opacity="0.502"/>
      <feComposite operator="in" in2="blur"/>
      <feComposite in="SourceGraphic"/>
    </filter>
    <filter id="PROVEN" x="28.067" y="12.93" width="115.075" height="78.1" filterUnits="userSpaceOnUse">
      <feOffset dy="2" input="SourceAlpha"/>
      <feGaussianBlur stdDeviation="2" result="blur-2"/>
      <feFlood flood-opacity="0.651"/>
      <feComposite operator="in" in2="blur-2"/>
      <feComposite in="SourceGraphic"/>
    </filter>
  </defs>
  <g id="_0.0_Home_Button2_How_174px" data-name="0.0_Home_Button2_How_174px" transform="translate(-633.683 -300.443)">
    <g id="Component_174_13" data-name="Component 174 – 13" transform="translate(641.183 305.943)">
      <rect id="Rectangle" width="173.635" height="88.113" fill="rgba(255,255,255,0.5)"/>
      <g transform="matrix(1, 0, 0, 1, -7.5, -5.5)" filter="url(#Rectangle_Copy)">
        <path id="Rectangle_Copy-2" data-name="Rectangle Copy" d="M0,0H173.635V88.346H0Z" transform="translate(7.5 5.5)" fill="none" stroke="#f4b41b" stroke-width="3"/>
      </g>
      <g id="Group_8" data-name="Group 8" transform="translate(160.133 51.896)">
        <path id="Oval" d="M-12.5,19A9.5,9.5,0,0,1-22,9.5,9.5,9.5,0,0,1-12.5,0,9.5,9.5,0,0,1-3.95,5.346,9.464,9.464,0,0,1-3,9.5,9.5,9.5,0,0,1-12.5,19Z" transform="translate(5)" fill="#f4b41b" stroke="#f4b41b" stroke-miterlimit="10" stroke-width="2"/>
        <path id="Path_2" data-name="Path 2" d="M-7,0-.953,5.183-7,10.366" transform="translate(-3.089 4.319)" fill="none" stroke="#5f2167" stroke-linecap="round" stroke-miterlimit="10" stroke-width="2"/>
      </g>
    </g>
    <g transform="matrix(1, 0, 0, 1, 633.68, 300.44)" filter="url(#PROVEN)">
      <path id="PROVEN-2" data-name="PROVEN" d="M2.1,24H5.95V16.975h7.1V24H16.9V6.5H13.05v6.925H5.95V6.5H2.1Zm27.25.3a9.049,9.049,0,0,0,9.325-9.05V15.2a8.966,8.966,0,0,0-9.275-9,9.049,9.049,0,0,0-9.325,9.05v.05A8.966,8.966,0,0,0,29.35,24.3Zm.05-3.55a5.317,5.317,0,0,1-5.3-5.5V15.2a5.234,5.234,0,0,1,5.25-5.45,5.317,5.317,0,0,1,5.3,5.5v.05A5.234,5.234,0,0,1,29.4,20.75Zm16.075,3.375h3.35l3.95-11.45,3.95,11.45h3.35L66.05,6.5H62.025L58.4,18.35,54.475,6.45h-3.3L47.25,18.35,43.625,6.5H39.5ZM2.275,48h3.85V30.5H2.275Zm7.975,0H22.825V44.5H14.1v-14H10.25Zm22.025.275c4.7,0,7.675-2.6,7.675-7.9V30.5H36.1V40.525c0,2.775-1.425,4.2-3.775,4.2S28.55,43.25,28.55,40.4V30.5H24.7v10C24.7,45.65,27.575,48.275,32.275,48.275ZM43.625,48H47.4V36.65l4.875,7.4h.1L57.3,36.575V48h3.825V30.5h-4.15l-4.6,7.4-4.6-7.4h-4.15ZM70,48h3.85V41.025L80.575,30.5H76.2l-4.25,7.025L67.775,30.5h-4.5L70,41.1Zm8.475,0H82.4L84,44.075h7.4L93,48h4.025l-7.5-17.625h-3.55Zm6.9-7.325L87.7,35l2.325,5.675ZM99.475,39a4.374,4.374,0,0,0,4.35-4.375V34.6a4.35,4.35,0,1,0-8.7.025v.025A4.337,4.337,0,0,0,99.475,39Zm0-.475a3.825,3.825,0,0,1-3.85-3.875v-.025a3.85,3.85,0,1,1,7.7-.025v.025A3.862,3.862,0,0,1,99.475,38.525Zm-1.9-1.675h1.3V35.475h.55l.925,1.375h1.5l-1.1-1.6a1.466,1.466,0,0,0,.95-1.45c0-1.075-.8-1.55-1.925-1.55h-2.2Zm1.3-2.4v-1.1H99.7c.45,0,.7.2.7.55,0,.325-.25.55-.7.55ZM6.725,72.125h3.35l3.95-11.45,3.95,11.45h3.35L27.3,54.5H23.275L19.65,66.35l-3.925-11.9h-3.3L8.5,66.35,4.875,54.5H.75ZM37.4,72.3a9.049,9.049,0,0,0,9.325-9.05V63.2a8.966,8.966,0,0,0-9.275-9,9.049,9.049,0,0,0-9.325,9.05v.05A8.966,8.966,0,0,0,37.4,72.3Zm.05-3.55a5.317,5.317,0,0,1-5.3-5.5V63.2a5.234,5.234,0,0,1,5.25-5.45,5.317,5.317,0,0,1,5.3,5.5v.05A5.234,5.234,0,0,1,37.45,68.75ZM49.9,72h3.85V66.4h3.025l3.75,5.6h4.5L60.75,65.75a5.435,5.435,0,0,0,3.75-5.425v-.05a5.493,5.493,0,0,0-1.5-4A6.974,6.974,0,0,0,57.9,54.5h-8Zm3.85-9V57.975h3.825c1.875,0,3.025.85,3.025,2.5v.05C60.6,62,59.525,63,57.65,63Zm13.975,9h3.85V66.65l2.025-2.1L79.025,72H83.65L76.2,61.925,83.35,54.5H78.625l-7.05,7.65V54.5h-3.85Zm23.975.25c3.775,0,6.425-1.95,6.425-5.425v-.05c0-3.05-2-4.325-5.55-5.25-3.025-.775-3.775-1.15-3.775-2.3v-.05c0-.85.775-1.525,2.25-1.525a8.212,8.212,0,0,1,4.55,1.725l2-2.9a10.13,10.13,0,0,0-6.5-2.225c-3.575,0-6.125,2.1-6.125,5.275v.05c0,3.475,2.275,4.45,5.8,5.35,2.925.75,3.525,1.25,3.525,2.225v.05c0,1.025-.95,1.65-2.525,1.65a8.028,8.028,0,0,1-5.225-2.125L84.275,69.45A11.136,11.136,0,0,0,91.7,72.25Z" transform="translate(33.32 10.73)" fill="#fff"/>
    </g>
  </g>
</svg>
