<svg xmlns="http://www.w3.org/2000/svg" xmlns:xlink="http://www.w3.org/1999/xlink" width="188.635" height="103.346" viewBox="0 0 188.635 103.346">
  <defs>
    <filter id="Rectangle_Copy" x="0" y="0" width="188.635" height="103.346" filterUnits="userSpaceOnUse">
      <feOffset dy="2" input="SourceAlpha"/>
      <feGaussianBlur stdDeviation="2" result="blur"/>
      <feFlood flood-opacity="0.502"/>
      <feComposite operator="in" in2="blur"/>
      <feComposite in="SourceGraphic"/>
    </filter>
    <filter id="PROVEN" x="17.727" y="24.097" width="129.18" height="54.67" filterUnits="userSpaceOnUse">
      <feOffset dy="2" input="SourceAlpha"/>
      <feGaussianBlur stdDeviation="2" result="blur-2"/>
      <feFlood flood-opacity="0.651"/>
      <feComposite operator="in" in2="blur-2"/>
      <feComposite in="SourceGraphic"/>
    </filter>
  </defs>
  <g id="_0.0_Home_Button1_Results_174px" data-name="0.0_Home_Button1_Results_174px" transform="translate(-433.683 -300.443)">
    <g id="Component_174_14" data-name="Component 174 – 14" transform="translate(441.183 305.943)">
      <rect id="Rectangle" width="173.635" height="88.113" fill="rgba(255,255,255,0.5)"/>
      <g transform="matrix(1, 0, 0, 1, -7.5, -5.5)" filter="url(#Rectangle_Copy)">
        <path id="Rectangle_Copy-2" data-name="Rectangle Copy" d="M0,0H173.635V88.346H0Z" transform="translate(7.5 5.5)" fill="none" stroke="#f4b41b" stroke-width="3"/>
      </g>
      <g id="Group_8" data-name="Group 8" transform="translate(160.133 51.896)">
        <path id="Oval" d="M-12.5,19A9.5,9.5,0,0,1-22,9.5,9.5,9.5,0,0,1-12.5,0,9.5,9.5,0,0,1-3.95,5.346,9.464,9.464,0,0,1-3,9.5,9.5,9.5,0,0,1-12.5,19Z" transform="translate(5)" fill="#f4b41b" stroke="#f4b41b" stroke-miterlimit="10" stroke-width="2"/>
        <path id="Path_2" data-name="Path 2" d="M-7,0-.953,5.183-7,10.366" transform="translate(-3.089 4.319)" fill="none" stroke="#5f2167" stroke-linecap="round" stroke-miterlimit="10" stroke-width="2"/>
      </g>
    </g>
    <g id="Group_10" data-name="Group 10" transform="translate(479.159 317.174)">
      <g transform="matrix(1, 0, 0, 1, -45.48, -16.73)" filter="url(#PROVEN)">
        <path id="PROVEN-2" data-name="PROVEN" d="M-56.589,0h4V-5.824h3.146L-45.539,0h4.68l-4.446-6.5a5.652,5.652,0,0,0,3.9-5.642v-.052a5.713,5.713,0,0,0-1.56-4.16,7.253,7.253,0,0,0-5.3-1.846h-8.32Zm4-9.36v-5.226h3.978c1.95,0,3.146.884,3.146,2.6v.052c0,1.534-1.118,2.574-3.068,2.574ZM-38.051,0h13.858V-3.562h-9.88V-7.384h8.58v-3.562h-8.58v-3.692h9.75V-18.2H-38.051Zm23.634.26c3.926,0,6.682-2.028,6.682-5.642v-.052c0-3.172-2.08-4.5-5.772-5.46-3.146-.806-3.926-1.2-3.926-2.392v-.052c0-.884.806-1.586,2.34-1.586a8.54,8.54,0,0,1,4.732,1.794l2.08-3.016a10.535,10.535,0,0,0-6.76-2.314c-3.718,0-6.37,2.184-6.37,5.486v.052c0,3.614,2.366,4.628,6.032,5.564,3.042.78,3.666,1.3,3.666,2.314v.052c0,1.066-.988,1.716-2.626,1.716a8.349,8.349,0,0,1-5.434-2.21l-2.366,2.834A11.582,11.582,0,0,0-14.417.26Zm17.5.026c4.888,0,7.982-2.7,7.982-8.216V-18.2h-4V-7.774c0,2.886-1.482,4.368-3.926,4.368S-.793-4.94-.793-7.9V-18.2h-4V-7.8C-4.8-2.444-1.807.286,3.081.286ZM14.885,0H27.963V-3.64H18.889V-18.2h-4ZM32.357,0h4V-14.508H41.9V-18.2H26.819v3.692h5.538ZM50.791.26c3.926,0,6.682-2.028,6.682-5.642v-.052c0-3.172-2.08-4.5-5.772-5.46-3.146-.806-3.926-1.2-3.926-2.392v-.052c0-.884.806-1.586,2.34-1.586a8.54,8.54,0,0,1,4.732,1.794l2.08-3.016a10.535,10.535,0,0,0-6.76-2.314c-3.718,0-6.37,2.184-6.37,5.486v.052c0,3.614,2.366,4.628,6.032,5.564,3.042.78,3.666,1.3,3.666,2.314v.052c0,1.066-.988,1.716-2.626,1.716a8.349,8.349,0,0,1-5.434-2.21L43.069-2.652A11.582,11.582,0,0,0,50.791.26ZM-54.117,24h3.234V12.282h4.473V9.3H-58.59v2.982h4.473Zm9.975,0h3.234V18.1h5.964V24h3.234V9.3h-3.234v5.817h-5.964V9.3h-3.234Zm14.49,0h3.3l1.344-3.3H-18.8l1.344,3.3h3.381l-6.3-14.8h-2.982Zm5.8-6.153L-21.9,13.08l1.953,4.767ZM-10.479,24h3.234V12.282h4.473V9.3h-12.18v2.982h4.473ZM5.586,24H16.149V21.06H8.82V9.3H5.586Zm11.529,0h3.3l1.344-3.3h6.216L29.316,24H32.7L26.4,9.2H23.415Zm5.8-6.153,1.953-4.767,1.953,4.767ZM39.774,24.21c3.171,0,5.4-1.638,5.4-4.557v-.042c0-2.562-1.68-3.633-4.662-4.41-2.541-.651-3.171-.966-3.171-1.932v-.042c0-.714.651-1.281,1.89-1.281A6.9,6.9,0,0,1,43.05,13.4l1.68-2.436A8.509,8.509,0,0,0,39.27,9.09c-3,0-5.145,1.764-5.145,4.431v.042c0,2.919,1.911,3.738,4.872,4.494,2.457.63,2.961,1.05,2.961,1.869v.042c0,.861-.8,1.386-2.121,1.386a6.744,6.744,0,0,1-4.389-1.785l-1.911,2.289A9.354,9.354,0,0,0,39.774,24.21ZM50.883,24h3.234V12.282H58.59V9.3H46.41v2.982h4.473Z" transform="translate(82.32 46.56)" fill="#fff"/>
      </g>
    </g>
  </g>
</svg>
