<svg xmlns="http://www.w3.org/2000/svg" xmlns:xlink="http://www.w3.org/1999/xlink" width="188.635" height="103.346" viewBox="0 0 188.635 103.346">
  <defs>
    <filter id="Rectangle_Copy" x="0" y="0" width="188.635" height="103.346" filterUnits="userSpaceOnUse">
      <feOffset dy="2" input="SourceAlpha"/>
      <feGaussianBlur stdDeviation="2" result="blur"/>
      <feFlood flood-opacity="0.502"/>
      <feComposite operator="in" in2="blur"/>
      <feComposite in="SourceGraphic"/>
    </filter>
    <filter id="PROVEN" x="57.754" y="21.308" width="88.57" height="46.659" filterUnits="userSpaceOnUse">
      <feOffset dy="2" input="SourceAlpha"/>
      <feGaussianBlur stdDeviation="2" result="blur-2"/>
      <feFlood flood-opacity="0.502"/>
      <feComposite operator="in" in2="blur-2"/>
      <feComposite in="SourceGraphic"/>
    </filter>
    <filter id="PROVEN-2" x="18.533" y="63.842" width="129.45" height="18.516" filterUnits="userSpaceOnUse">
      <feOffset dy="2" input="SourceAlpha"/>
      <feGaussianBlur stdDeviation="2" result="blur-3"/>
      <feFlood flood-opacity="0.502"/>
      <feComposite operator="in" in2="blur-3"/>
      <feComposite in="SourceGraphic"/>
    </filter>
    <filter id="PROVEN-3" x="17.475" y="19.84" width="43.616" height="48.66" filterUnits="userSpaceOnUse">
      <feOffset dy="2" input="SourceAlpha"/>
      <feGaussianBlur stdDeviation="2" result="blur-4"/>
      <feFlood flood-opacity="0.502"/>
      <feComposite operator="in" in2="blur-4"/>
      <feComposite in="SourceGraphic"/>
    </filter>
  </defs>
  <g id="_0.0_Home_Button3_Doses_174px" data-name="0.0_Home_Button3_Doses_174px" transform="translate(-836.683 -300.443)">
    <g id="Group_2189" data-name="Group 2189" transform="translate(-4 1.693)">
      <g id="Group_10" data-name="Group 10" transform="translate(868.209 319.453)">
        <g id="Component_174_12" data-name="Component 174 – 12" transform="translate(-20.026 -15.203)">
          <rect id="Rectangle" width="173.635" height="88.113" fill="rgba(255,255,255,0.5)"/>
          <g transform="matrix(1, 0, 0, 1, -7.5, -5.5)" filter="url(#Rectangle_Copy)">
            <path id="Rectangle_Copy-2" data-name="Rectangle Copy" d="M0,0H173.635V88.346H0Z" transform="translate(7.5 5.5)" fill="none" stroke="#f4b41b" stroke-width="3"/>
          </g>
          <g id="Group_8" data-name="Group 8" transform="translate(160.133 51.896)">
            <path id="Oval" d="M-12.5,19A9.5,9.5,0,0,1-22,9.5,9.5,9.5,0,0,1-12.5,0,9.5,9.5,0,0,1-3.95,5.346,9.464,9.464,0,0,1-3,9.5,9.5,9.5,0,0,1-12.5,19Z" transform="translate(5)" fill="#f4b41b" stroke="#f4b41b" stroke-miterlimit="10" stroke-width="2"/>
            <path id="Path_2" data-name="Path 2" d="M-7,0-.953,5.183-7,10.366" transform="translate(-3.089 4.319)" fill="none" stroke="#5f2167" stroke-linecap="round" stroke-miterlimit="10" stroke-width="2"/>
          </g>
        </g>
        <g transform="matrix(1, 0, 0, 1, -27.53, -20.7)" filter="url(#PROVEN)">
          <path id="PROVEN-4" data-name="PROVEN" d="M5.339,21H8.265V15.7l5.111-8H10.051l-3.23,5.339L3.648,7.7H.228l5.111,8.056Zm9.671,0H25.137V18.4h-7.22V15.6h6.27V13h-6.27V10.3h7.125V7.7H15.01Zm11.4,0h2.983l1.216-2.983h5.624L37.449,21h3.059l-5.7-13.395h-2.7Zm5.244-5.567,1.767-4.313,1.767,4.313ZM42.37,21H45.3V16.744h2.3L50.445,21h3.42l-3.249-4.75a4.13,4.13,0,0,0,2.85-4.123v-.038a4.175,4.175,0,0,0-1.14-3.04A5.3,5.3,0,0,0,48.45,7.7H42.37ZM45.3,14.16V10.341H48.2c1.425,0,2.3.646,2.3,1.9v.038c0,1.121-.817,1.881-2.242,1.881ZM55.917,21h9.557V18.34H58.843V7.7H55.917Zm12.844,0h2.926V15.7l5.111-8H73.473l-3.23,5.339L67.07,7.7H63.65l5.111,8.056ZM1.848,42H7.854c4.84,0,8.184-3.366,8.184-7.7v-.044c0-4.334-3.344-7.656-8.184-7.656H1.848ZM7.854,29.658A4.423,4.423,0,0,1,12.5,34.3v.044a4.388,4.388,0,0,1-4.642,4.6H5.236V29.658ZM26.312,42.264A7.964,7.964,0,0,0,34.518,34.3v-.044a7.89,7.89,0,0,0-8.162-7.92A7.964,7.964,0,0,0,18.15,34.3v.044A7.89,7.89,0,0,0,26.312,42.264Zm.044-3.124a4.679,4.679,0,0,1-4.664-4.84v-.044a4.606,4.606,0,0,1,4.62-4.8,4.679,4.679,0,0,1,4.664,4.84v.044A4.606,4.606,0,0,1,26.356,39.14ZM42.68,42.22c3.322,0,5.654-1.716,5.654-4.774V37.4c0-2.684-1.76-3.806-4.884-4.62-2.662-.682-3.322-1.012-3.322-2.024v-.044c0-.748.682-1.342,1.98-1.342a7.226,7.226,0,0,1,4,1.518l1.76-2.552a8.915,8.915,0,0,0-5.72-1.958c-3.146,0-5.39,1.848-5.39,4.642v.044c0,3.058,2,3.916,5.1,4.708,2.574.66,3.1,1.1,3.1,1.958v.044c0,.9-.836,1.452-2.222,1.452a7.065,7.065,0,0,1-4.6-1.87l-2,2.4A9.8,9.8,0,0,0,42.68,42.22ZM51.062,42H62.788V38.986h-8.36V35.752h7.26V32.738h-7.26V29.614h8.25V26.6H51.062Zm20,.22c3.322,0,5.654-1.716,5.654-4.774V37.4c0-2.684-1.76-3.806-4.884-4.62-2.662-.682-3.322-1.012-3.322-2.024v-.044c0-.748.682-1.342,1.98-1.342a7.226,7.226,0,0,1,4,1.518l1.76-2.552a8.915,8.915,0,0,0-5.72-1.958c-3.146,0-5.39,1.848-5.39,4.642v.044c0,3.058,2,3.916,5.1,4.708,2.574.66,3.1,1.1,3.1,1.958v.044c0,.9-.836,1.452-2.222,1.452a7.065,7.065,0,0,1-4.6-1.87l-2,2.4A9.8,9.8,0,0,0,71.06,42.22Z" transform="translate(63.53 17.7)" fill="#fff"/>
        </g>
      </g>
      <g id="Group_10-2" data-name="Group 10" transform="translate(877.209 442.334)">
        <g transform="matrix(1, 0, 0, 1, -36.53, -143.58)" filter="url(#PROVEN-2)">
          <path id="PROVEN-5" data-name="PROVEN" d="M.216,0H1.629L2.2-1.413H4.869L5.445,0H6.894l-2.7-6.345H2.916ZM2.7-2.637,3.537-4.68l.837,2.043ZM7.776,0H9.162V-2.439h3.006V-3.7H9.162V-5.04h3.411V-6.3h-4.8Zm7.281,0h1.386V-5.022H18.36V-6.3H13.14v1.278h1.917Zm4.275,0h4.8V-1.233h-3.42V-2.556h2.97V-3.789h-2.97V-5.067h3.375V-6.3H19.332Zm5.94,0h1.386V-2.016h1.089L29.1,0h1.62L29.178-2.25A1.956,1.956,0,0,0,30.528-4.2v-.018a1.978,1.978,0,0,0-.54-1.44A2.511,2.511,0,0,0,28.152-6.3h-2.88Zm1.386-3.24V-5.049h1.377c.675,0,1.089.306,1.089.9v.018c0,.531-.387.891-1.062.891ZM33.984,0h4.662V-1.2H35.9l1.026-.792c1.116-.864,1.656-1.386,1.656-2.439v-.018A1.942,1.942,0,0,0,36.414-6.39a2.63,2.63,0,0,0-2.349,1.3l.972.783c.468-.576.8-.846,1.287-.846a.773.773,0,0,1,.846.819c0,.522-.306.864-1.089,1.512L33.984-1.1ZM44.667.09c1.359,0,2.313-.7,2.313-1.953v-.018c0-1.1-.72-1.557-2-1.89-1.089-.279-1.359-.414-1.359-.828v-.018c0-.306.279-.549.81-.549a2.956,2.956,0,0,1,1.638.621l.72-1.044a3.647,3.647,0,0,0-2.34-.8,1.971,1.971,0,0,0-2.2,1.9v.018c0,1.251.819,1.6,2.088,1.926,1.053.27,1.269.45,1.269.8v.018c0,.369-.342.594-.909.594A2.89,2.89,0,0,1,42.813-1.9l-.819.981A4.009,4.009,0,0,0,44.667.09ZM49.428,0h1.386V-5.022h1.917V-6.3h-5.22v1.278h1.917Zm2.925,0h1.413l.576-1.413h2.664L57.582,0h1.449l-2.7-6.345H55.053Zm2.484-2.637.837-2.043.837,2.043ZM59.913,0H61.3V-2.016h1.089L63.738,0h1.62L63.819-2.25A1.956,1.956,0,0,0,65.169-4.2v-.018a1.978,1.978,0,0,0-.54-1.44A2.511,2.511,0,0,0,62.793-6.3h-2.88ZM61.3-3.24V-5.049h1.377c.675,0,1.089.306,1.089.9v.018c0,.531-.387.891-1.062.891ZM67.8,0h1.386V-5.022H71.1V-6.3H65.88v1.278H67.8Zm4.275,0h4.8V-1.233h-3.42V-2.556h2.97V-3.789h-2.97V-5.067h3.375V-6.3H72.072Zm5.94,0H79.4V-2.016h1.089L81.837,0h1.62L81.918-2.25A1.956,1.956,0,0,0,83.268-4.2v-.018a1.978,1.978,0,0,0-.54-1.44A2.511,2.511,0,0,0,80.892-6.3h-2.88ZM79.4-3.24V-5.049h1.377c.675,0,1.089.306,1.089.9v.018c0,.531-.387.891-1.062.891ZM87.039,0H89.5a3.154,3.154,0,0,0,3.348-3.15v-.018A3.14,3.14,0,0,0,89.5-6.3H87.039ZM89.5-5.049a1.809,1.809,0,0,1,1.9,1.9v.018a1.8,1.8,0,0,1-1.9,1.881H88.425v-3.8ZM97.047.108A3.258,3.258,0,0,0,100.4-3.15v-.018a3.228,3.228,0,0,0-3.339-3.24A3.258,3.258,0,0,0,93.708-3.15v.018A3.228,3.228,0,0,0,97.047.108Zm.018-1.278a1.914,1.914,0,0,1-1.908-1.98v-.018a1.884,1.884,0,0,1,1.89-1.962,1.914,1.914,0,0,1,1.908,1.98v.018A1.884,1.884,0,0,1,97.065-1.17ZM103.743.09c1.359,0,2.313-.7,2.313-1.953v-.018c0-1.1-.72-1.557-2-1.89-1.089-.279-1.359-.414-1.359-.828v-.018c0-.306.279-.549.81-.549a2.956,2.956,0,0,1,1.638.621l.72-1.044a3.647,3.647,0,0,0-2.34-.8,1.971,1.971,0,0,0-2.205,1.9v.018c0,1.251.819,1.6,2.088,1.926,1.053.27,1.269.45,1.269.8v.018c0,.369-.342.594-.909.594a2.89,2.89,0,0,1-1.881-.765l-.819.981A4.009,4.009,0,0,0,103.743.09ZM107.172,0h4.8V-1.233h-3.42V-2.556h2.97V-3.789h-2.97V-5.067h3.375V-6.3h-4.752Zm8.181.09c1.359,0,2.313-.7,2.313-1.953v-.018c0-1.1-.72-1.557-2-1.89-1.089-.279-1.359-.414-1.359-.828v-.018c0-.306.279-.549.81-.549a2.956,2.956,0,0,1,1.638.621l.72-1.044a3.647,3.647,0,0,0-2.34-.8,1.971,1.971,0,0,0-2.205,1.9v.018c0,1.251.819,1.6,2.088,1.926,1.053.27,1.269.45,1.269.8v.018c0,.369-.342.594-.909.594A2.89,2.89,0,0,1,113.5-1.9l-.819.981A4.009,4.009,0,0,0,115.353.09Z" transform="translate(24.32 74.25)" fill="#fff"/>
        </g>
      </g>
      <g id="Group_10-3" data-name="Group 10" transform="translate(769.209 313.453)">
        <g transform="matrix(1, 0, 0, 1, 71.47, -14.7)" filter="url(#PROVEN-3)">
          <path id="PROVEN-6" data-name="PROVEN" d="M-4.758,0H2.886V-7.852H7.774v-6.5H2.886V-36.66h-6.76L-23.842-13.52l1.3,5.668H-4.758ZM-14.43-14.352l9.672-11.336v11.336Z" transform="translate(47.32 60.5)" fill="#fff"/>
        </g>
      </g>
    </g>
  </g>
</svg>
