<svg xmlns="http://www.w3.org/2000/svg" xmlns:xlink="http://www.w3.org/1999/xlink" width="188.63" height="103.35" viewBox="0 0 188.63 103.35">
  <defs>
    <filter id="Rectangle_Copy" x="-0.5" y="0" width="188.635" height="103.346" filterUnits="userSpaceOnUse">
      <feOffset dy="2" input="SourceAlpha"/>
      <feGaussianBlur stdDeviation="2" result="blur"/>
      <feFlood flood-opacity="0.502"/>
      <feComposite operator="in" in2="blur"/>
      <feComposite in="SourceGraphic"/>
    </filter>
    <filter id="CLEARER" x="21.304" y="17.271" width="122.403" height="48.709" filterUnits="userSpaceOnUse">
      <feOffset dy="2" input="SourceAlpha"/>
      <feGaussianBlur stdDeviation="2" result="blur-2"/>
      <feFlood flood-opacity="0.502"/>
      <feComposite operator="in" in2="blur-2"/>
      <feComposite in="SourceGraphic"/>
    </filter>
    <filter id="CLEARER-2" x="21.496" y="60.264" width="118.803" height="29.516" filterUnits="userSpaceOnUse">
      <feOffset dy="2" input="SourceAlpha"/>
      <feGaussianBlur stdDeviation="2" result="blur-3"/>
      <feFlood flood-opacity="0.502"/>
      <feComposite operator="in" in2="blur-3"/>
      <feComposite in="SourceGraphic"/>
    </filter>
    <clipPath id="clip-ILUMYA_SUPPORT_Button">
      <rect width="188.63" height="103.35"/>
    </clipPath>
  </defs>
  <g id="ILUMYA_SUPPORT_Button" data-name="ILUMYA SUPPORT_Button" clip-path="url(#clip-ILUMYA_SUPPORT_Button)">
    <g id="Group_3378" data-name="Group 3378" transform="translate(-600.393 5.5)">
      <g id="Group_2196" data-name="Group 2196" transform="translate(-441.183 -305.943)">
        <g id="Component_174_16" data-name="Component 174 – 16" transform="translate(1048.576 305.943)">
          <rect id="Rectangle" width="173.635" height="88.113" fill="rgba(255,255,255,0.5)" opacity="0.597"/>
          <g transform="matrix(1, 0, 0, 1, -7, -5.5)" filter="url(#Rectangle_Copy)">
            <path id="Rectangle_Copy-2" data-name="Rectangle Copy" d="M0,0H173.635V88.346H0Z" transform="translate(7 5.5)" fill="none" stroke="#f4b41b" stroke-width="3"/>
          </g>
          <g id="Group_8" data-name="Group 8" transform="translate(160.133 51.896)">
            <path id="Oval" d="M-12.5,19A9.5,9.5,0,0,1-22,9.5,9.5,9.5,0,0,1-12.5,0,9.5,9.5,0,0,1-3.95,5.346,9.464,9.464,0,0,1-3,9.5,9.5,9.5,0,0,1-12.5,19Z" transform="translate(5)" fill="#f4b41b" stroke="#f4b41b" stroke-miterlimit="10" stroke-width="2"/>
            <path id="Path_2" data-name="Path 2" d="M-7,0-.953,5.183-7,10.366" transform="translate(-3.089 4.319)" fill="none" stroke="#5f2167" stroke-linecap="round" stroke-miterlimit="10" stroke-width="2"/>
          </g>
        </g>
      </g>
      <g id="Group_2603" data-name="Group 2603" transform="translate(-440.183 -306.828)">
        <g transform="matrix(1, 0, 0, 1, 1040.58, 301.33)" filter="url(#CLEARER)">
          <path id="CLEARER-3" data-name="CLEARER" d="M1.672,0V-15.4H4.686V0ZM8.25,0V-15.4h3.014V0Zm1.936,0V-2.75H18.04V0ZM26.312.308A6.984,6.984,0,0,1,22.99-.44a5.251,5.251,0,0,1-2.167-2.1,6.439,6.439,0,0,1-.759-3.2h3.014a3.516,3.516,0,0,0,.407,1.727,2.791,2.791,0,0,0,1.144,1.133,3.6,3.6,0,0,0,1.727.4,3.6,3.6,0,0,0,1.727-.4,2.791,2.791,0,0,0,1.144-1.133,3.516,3.516,0,0,0,.407-1.727h3.014a6.294,6.294,0,0,1-.781,3.2,5.379,5.379,0,0,1-2.2,2.1A7.1,7.1,0,0,1,26.312.308Zm-6.248-6.05V-15.4h3.014v9.658Zm9.57,0V-15.4h3.014v9.658ZM43.758-3.7l-7.634-11.11,1.408-.418L39.27-15.4l6.006,8.91ZM35.992,0V-15.4h3.014V0Zm7.766-3.7L42.24-6.49l6.006-8.91,1.738.176,1.364.374ZM48.51,0V-15.4H51.5V0ZM61.93-6.358l-2.838-.726,4.95-8.316h3.432ZM59,0V-7.392h3.014V0Zm.088-6.358L53.548-15.4H56.98l4.95,8.316ZM80.19,0l-5.9-15.4h3.014L83.38,0ZM68.024,0,74.1-15.4H77.11L71.214,0Zm2.86-3.388V-6.05h9.658v2.662Zm36.844,16.373a3.517,3.517,0,0,1-1.392-.276,3.558,3.558,0,0,1-1.9-1.9,3.619,3.619,0,0,1,0-2.772,3.558,3.558,0,0,1,1.9-1.9,3.619,3.619,0,0,1,2.772,0,3.558,3.558,0,0,1,1.9,1.9,3.619,3.619,0,0,1,0,2.772,3.558,3.558,0,0,1-1.9,1.9A3.485,3.485,0,0,1,107.728,12.985Zm0-.847a2.8,2.8,0,0,0,1.4-.34,2.414,2.414,0,0,0,.943-.956,2.872,2.872,0,0,0,.34-1.412,2.853,2.853,0,0,0-.34-1.424,2.483,2.483,0,0,0-.943-.95,3.023,3.023,0,0,0-2.81,0,2.483,2.483,0,0,0-.943.95,2.853,2.853,0,0,0-.34,1.424,2.872,2.872,0,0,0,.34,1.412,2.414,2.414,0,0,0,.943.956A2.826,2.826,0,0,0,107.728,12.138Zm-1.36-.937V7.467l1.463-.013a1.421,1.421,0,0,1,.988.346,1.152,1.152,0,0,1,.385.9,1.171,1.171,0,0,1-.186.648,1.215,1.215,0,0,1-.507.443l.847,1.412h-.95l-.719-1.258H107.2V11.2Zm.834-2.028h.6a.54.54,0,0,0,.379-.135.441.441,0,0,0,.148-.34.433.433,0,0,0-.154-.34.582.582,0,0,0-.4-.135H107.2ZM6.842,21.264a7.979,7.979,0,0,1-2.178-.286,6.521,6.521,0,0,1-1.8-.8A5.615,5.615,0,0,1,1.551,19.02,3.219,3.219,0,0,1,.88,17.678l2.948-.88A2.878,2.878,0,0,0,4.84,18.085a3.088,3.088,0,0,0,1.826.561,3.087,3.087,0,0,0,1.9-.506,1.611,1.611,0,0,0,.737-1.364,1.541,1.541,0,0,0-.583-1.221A3.994,3.994,0,0,0,7.128,14.8l-2-.528a6.226,6.226,0,0,1-1.98-.869A4.261,4.261,0,0,1,1.8,11.958a4.006,4.006,0,0,1-.484-2,4.214,4.214,0,0,1,1.441-3.4A6.134,6.134,0,0,1,6.842,5.336a7.152,7.152,0,0,1,2.585.429,4.98,4.98,0,0,1,1.859,1.221,5.4,5.4,0,0,1,1.144,1.87l-2.926.9a2.711,2.711,0,0,0-.968-1.276,2.888,2.888,0,0,0-1.782-.528,2.677,2.677,0,0,0-1.727.506A1.733,1.733,0,0,0,4.4,9.89a1.418,1.418,0,0,0,.495,1.144,3.371,3.371,0,0,0,1.353.638l2.024.506a5.791,5.791,0,0,1,3.08,1.738,4.135,4.135,0,0,1,1.1,2.794,4.305,4.305,0,0,1-.66,2.387,4.357,4.357,0,0,1-1.914,1.595A7.283,7.283,0,0,1,6.842,21.264Zm14.432.044a6.984,6.984,0,0,1-3.322-.748,5.251,5.251,0,0,1-2.167-2.1,6.439,6.439,0,0,1-.759-3.2H18.04a3.516,3.516,0,0,0,.407,1.727,2.791,2.791,0,0,0,1.144,1.133,3.964,3.964,0,0,0,3.454,0,2.791,2.791,0,0,0,1.144-1.133,3.516,3.516,0,0,0,.407-1.727H27.61a6.293,6.293,0,0,1-.781,3.2,5.379,5.379,0,0,1-2.2,2.1A7.1,7.1,0,0,1,21.274,21.308Zm-6.248-6.05V5.6H18.04v9.658Zm9.57,0V5.6H27.61v9.658Zm9.02.638V13.124H36.85a2.229,2.229,0,0,0,1.661-.66,2.372,2.372,0,0,0,.649-1.738,2.293,2.293,0,0,0-1.232-2.09,2.577,2.577,0,0,0-1.32-.286H33.616V5.6l3.058-.022a5.842,5.842,0,0,1,2.882.649,4.9,4.9,0,0,1,2.662,4.5,5.174,5.174,0,0,1-.682,2.662,4.943,4.943,0,0,1-1.87,1.837,5.5,5.5,0,0,1-2.75.671ZM30.954,21V5.6h3.014V21ZM47.1,15.9V13.124h3.234A2.229,2.229,0,0,0,52,12.464a2.372,2.372,0,0,0,.649-1.738,2.293,2.293,0,0,0-1.232-2.09,2.577,2.577,0,0,0-1.32-.286H47.1V5.6l3.058-.022a5.842,5.842,0,0,1,2.882.649,4.9,4.9,0,0,1,2.662,4.5,5.174,5.174,0,0,1-.682,2.662,4.943,4.943,0,0,1-1.87,1.837,5.5,5.5,0,0,1-2.75.671ZM44.44,21V5.6h3.014V21Zm20.526.264a8.176,8.176,0,0,1-4.125-1.023,7.339,7.339,0,0,1-2.805-2.816,8.2,8.2,0,0,1-1.012-4.1,8.292,8.292,0,0,1,1.012-4.147,7.305,7.305,0,0,1,2.783-2.8A8.737,8.737,0,0,1,69,6.381,7.385,7.385,0,0,1,71.786,9.2,8.247,8.247,0,0,1,72.8,13.322a8.274,8.274,0,0,1-1,4.1,7.306,7.306,0,0,1-2.772,2.816A7.967,7.967,0,0,1,64.966,21.264Zm0-2.75a4.55,4.55,0,0,0,2.475-.671,4.655,4.655,0,0,0,1.672-1.837,5.745,5.745,0,0,0,.605-2.684,5.709,5.709,0,0,0-.616-2.706,4.708,4.708,0,0,0-1.694-1.837,4.731,4.731,0,0,0-6.688,1.837,5.709,5.709,0,0,0-.616,2.706,5.66,5.66,0,0,0,.616,2.684,4.655,4.655,0,0,0,1.716,1.837A4.76,4.76,0,0,0,64.966,18.514Zm13.156-2.97v-2.75H81.2a2.564,2.564,0,0,0,1.221-.286,2.232,2.232,0,0,0,.858-.792,2.1,2.1,0,0,0,.319-1.144,2.019,2.019,0,0,0-.715-1.606,2.714,2.714,0,0,0-1.837-.616H78.122V5.6l3.058-.022a6,6,0,0,1,2.882.627A4.931,4.931,0,0,1,86.02,7.976a4.781,4.781,0,0,1,.7,2.6,4.635,4.635,0,0,1-.737,2.585,4.95,4.95,0,0,1-2.013,1.76,6.5,6.5,0,0,1-2.9.627ZM75.46,21V5.6h3.014V21Zm8.47,0-3.564-6.182,2.31-1.65L87.34,21Zm8.932,0V6.876h3.014V21ZM88.242,8.35V5.6h12.232V8.35Z" transform="translate(26.42 36.67)" fill="#fff"/>
        </g>
        <g transform="matrix(1, 0, 0, 1, 1040.58, 301.33)" filter="url(#CLEARER-2)">
          <path id="CLEARER-4" data-name="CLEARER" d="M.684,11V4.7H1.917V11Zm.99-2.538V7.337H4.257V8.462Zm0-2.637V4.7H4.725V5.825ZM5.76,11V4.7H6.993V11Zm7.056,0L8.739,5.375l1-.675L13.8,10.3ZM8.451,11V4.7H9.738L9.684,5.789v5.22Zm4.365,0V4.7H14.04V11Zm7.047,0L17.451,4.7h1.233L21.168,11Zm-4.977,0L17.37,4.7H18.6L16.191,11Zm1.17-1.386V8.525h3.951V9.614ZM26.379,11,22.3,5.375l1-.675,4.059,5.6Zm-4.365,0V4.7H23.3l-.054,1.089v5.22Zm4.365,0V4.7H27.6V11Zm5.463.108a3.151,3.151,0,0,1-1.629-.418A2.985,2.985,0,0,1,29.1,9.538a3.434,3.434,0,0,1-.4-1.687,3.434,3.434,0,0,1,.4-1.688A3,3,0,0,1,30.208,5.01a3.329,3.329,0,0,1,2.831-.189,3.028,3.028,0,0,1,.977.639,2.873,2.873,0,0,1,.643.94l-1.143.423a1.941,1.941,0,0,0-.4-.581,1.871,1.871,0,0,0-.576-.387,1.858,1.858,0,0,0-1.678.135,1.862,1.862,0,0,0-.666.752,2.445,2.445,0,0,0-.238,1.107A2.435,2.435,0,0,0,30.2,8.962a1.876,1.876,0,0,0,.675.756,1.806,1.806,0,0,0,.99.274,1.656,1.656,0,0,0,.707-.148,1.851,1.851,0,0,0,.567-.41,2.136,2.136,0,0,0,.4-.6l1.143.414a2.994,2.994,0,0,1-1.62,1.629A3.11,3.11,0,0,1,31.842,11.108ZM35.676,11V4.7h1.233V11Zm7.056,0L40.32,4.7h1.233L44.037,11Zm-4.977,0,2.484-6.3h1.233L39.06,11Zm1.17-1.386V8.525h3.951V9.614ZM44.883,11V4.7h1.233V11Zm.792,0V9.875h3.213V11ZM56.4,11,53.991,4.7h1.233L57.708,11Zm-4.977,0L53.91,4.7h1.233L52.731,11ZM52.6,9.614V8.525h3.951V9.614Zm8.073,1.494a3.264,3.264,0,0,1-.891-.117,2.668,2.668,0,0,1-.738-.328,2.3,2.3,0,0,1-.535-.473,1.317,1.317,0,0,1-.274-.549l1.206-.36a1.177,1.177,0,0,0,.414.526,1.441,1.441,0,0,0,1.526.023.659.659,0,0,0,.3-.558.63.63,0,0,0-.238-.5,1.634,1.634,0,0,0-.653-.311l-.819-.216a2.547,2.547,0,0,1-.81-.356,1.743,1.743,0,0,1-.549-.59,1.639,1.639,0,0,1-.2-.819A1.724,1.724,0,0,1,59,5.092a2.51,2.51,0,0,1,1.669-.5,2.926,2.926,0,0,1,1.057.175,2.037,2.037,0,0,1,.761.5,2.209,2.209,0,0,1,.468.765l-1.2.369a1.109,1.109,0,0,0-.4-.522,1.181,1.181,0,0,0-.729-.216,1.1,1.1,0,0,0-.707.207.709.709,0,0,0-.257.585.58.58,0,0,0,.2.468,1.379,1.379,0,0,0,.554.261l.828.207a2.369,2.369,0,0,1,1.26.711,1.691,1.691,0,0,1,.45,1.143,1.761,1.761,0,0,1-.27.977,1.782,1.782,0,0,1-.783.652A2.979,2.979,0,0,1,60.669,11.108Zm5.553,0a3.264,3.264,0,0,1-.891-.117,2.667,2.667,0,0,1-.738-.328,2.3,2.3,0,0,1-.535-.473,1.317,1.317,0,0,1-.275-.549l1.206-.36a1.177,1.177,0,0,0,.414.526,1.441,1.441,0,0,0,1.525.023.659.659,0,0,0,.3-.558.63.63,0,0,0-.239-.5,1.634,1.634,0,0,0-.653-.311l-.819-.216a2.547,2.547,0,0,1-.81-.356,1.743,1.743,0,0,1-.549-.59,1.639,1.639,0,0,1-.2-.819,1.724,1.724,0,0,1,.589-1.391,2.51,2.51,0,0,1,1.67-.5,2.926,2.926,0,0,1,1.058.175,2.037,2.037,0,0,1,.76.5,2.209,2.209,0,0,1,.468.765l-1.2.369a1.109,1.109,0,0,0-.4-.522,1.181,1.181,0,0,0-.729-.216,1.1,1.1,0,0,0-.706.207.709.709,0,0,0-.257.585.58.58,0,0,0,.2.468,1.379,1.379,0,0,0,.554.261l.828.207a2.369,2.369,0,0,1,1.26.711,1.691,1.691,0,0,1,.45,1.143,1.761,1.761,0,0,1-.27.977,1.782,1.782,0,0,1-.783.652A2.979,2.979,0,0,1,66.222,11.108ZM69.66,11V4.7h1.233V11Zm4.806.108a3.264,3.264,0,0,1-.891-.117,2.668,2.668,0,0,1-.738-.328,2.3,2.3,0,0,1-.535-.473,1.317,1.317,0,0,1-.274-.549l1.206-.36a1.177,1.177,0,0,0,.414.526,1.441,1.441,0,0,0,1.525.023.659.659,0,0,0,.3-.558.63.63,0,0,0-.239-.5,1.634,1.634,0,0,0-.652-.311l-.819-.216a2.547,2.547,0,0,1-.81-.356A1.743,1.743,0,0,1,72.4,7.3a1.639,1.639,0,0,1-.2-.819,1.724,1.724,0,0,1,.59-1.391,2.51,2.51,0,0,1,1.67-.5,2.926,2.926,0,0,1,1.057.175,2.037,2.037,0,0,1,.76.5,2.209,2.209,0,0,1,.468.765l-1.2.369a1.109,1.109,0,0,0-.4-.522,1.181,1.181,0,0,0-.729-.216,1.1,1.1,0,0,0-.706.207.709.709,0,0,0-.257.585.58.58,0,0,0,.2.468,1.379,1.379,0,0,0,.553.261l.828.207a2.369,2.369,0,0,1,1.26.711,1.691,1.691,0,0,1,.45,1.143,1.761,1.761,0,0,1-.27.977,1.782,1.782,0,0,1-.783.652A2.979,2.979,0,0,1,74.466,11.108ZM79.236,11V5.222h1.233V11Zm-1.89-5.175V4.7h5V5.825ZM87.039,11,84.627,4.7H85.86L88.344,11Zm-4.977,0,2.484-6.3h1.233L83.367,11Zm1.17-1.386V8.525h3.951V9.614ZM93.555,11,89.478,5.375l1-.675,4.059,5.6ZM89.19,11V4.7h1.287l-.054,1.089v5.22Zm4.365,0V4.7h1.224V11Zm5.463.108a3.151,3.151,0,0,1-1.629-.418,2.985,2.985,0,0,1-1.116-1.152,3.434,3.434,0,0,1-.4-1.687,3.434,3.434,0,0,1,.4-1.688A3,3,0,0,1,97.384,5.01a3.329,3.329,0,0,1,2.831-.189,3.028,3.028,0,0,1,.976.639,2.873,2.873,0,0,1,.644.94l-1.143.423a1.941,1.941,0,0,0-.4-.581,1.871,1.871,0,0,0-.576-.387,1.858,1.858,0,0,0-1.678.135,1.862,1.862,0,0,0-.666.752,2.445,2.445,0,0,0-.239,1.107,2.435,2.435,0,0,0,.243,1.111,1.876,1.876,0,0,0,.675.756,1.806,1.806,0,0,0,.99.274,1.656,1.656,0,0,0,.706-.148,1.851,1.851,0,0,0,.567-.41,2.136,2.136,0,0,0,.4-.6l1.143.414a2.994,2.994,0,0,1-1.62,1.629A3.11,3.11,0,0,1,99.018,11.108ZM102.852,11V4.7h1.233V11Zm.936,0V9.875h3.087V11Zm0-2.646v-1.1h2.673v1.1Zm0-2.529V4.7h3.051V5.825ZM5.049,22,2.637,15.7H3.87L6.354,22ZM.072,22l2.484-6.3H3.789L1.377,22Zm1.17-1.386V19.525H5.193v1.089ZM11.565,22,7.488,16.375l1-.675,4.059,5.6ZM7.2,22V15.7H8.487l-.054,1.089v5.22Zm4.365,0V15.7h1.224V22Zm4.7,0V20.848a2.071,2.071,0,0,0,.8-.153,2,2,0,0,0,.644-.423,1.925,1.925,0,0,0,.427-.634,2.1,2.1,0,0,0,0-1.575,1.925,1.925,0,0,0-.427-.635,2,2,0,0,0-.644-.423,2.071,2.071,0,0,0-.8-.153V15.7a3.5,3.5,0,0,1,1.705.4,2.978,2.978,0,0,1,1.161,1.111,3.373,3.373,0,0,1,0,3.263,3.009,3.009,0,0,1-1.161,1.116A3.478,3.478,0,0,1,16.263,22Zm-1.305,0V20.848h1.305V22Zm-.711,0V15.7H15.48V22Zm.711-5.148V15.7h1.305v1.152Zm11.088,3.636-3.123-4.545.576-.171.711-.072,2.457,3.645ZM22.869,22V15.7H24.1V22Zm3.177-1.512-.621-1.143L27.882,15.7l.711.072.558.153ZM27.99,22V15.7h1.224V22Zm5.562.108a3.345,3.345,0,0,1-1.688-.418,3,3,0,0,1-1.147-1.152,3.355,3.355,0,0,1-.414-1.679,3.392,3.392,0,0,1,.414-1.7,2.989,2.989,0,0,1,1.139-1.148,3.574,3.574,0,0,1,3.348,0,3.021,3.021,0,0,1,1.138,1.152,3.645,3.645,0,0,1,0,3.366,2.989,2.989,0,0,1-1.134,1.152A3.259,3.259,0,0,1,33.552,22.108Zm0-1.125a1.862,1.862,0,0,0,1.012-.274,1.9,1.9,0,0,0,.684-.751,2.558,2.558,0,0,0,0-2.205A1.926,1.926,0,0,0,34.551,17a1.936,1.936,0,0,0-2.736.751,2.538,2.538,0,0,0,0,2.205,1.9,1.9,0,0,0,.7.751A1.947,1.947,0,0,0,33.552,20.983Zm5.382-1.215V18.643h1.26a1.049,1.049,0,0,0,.5-.117.913.913,0,0,0,.351-.324.859.859,0,0,0,.131-.468.826.826,0,0,0-.292-.657,1.11,1.11,0,0,0-.751-.252h-1.2V15.7l1.251-.009a2.455,2.455,0,0,1,1.179.257,2.017,2.017,0,0,1,.8.725,1.956,1.956,0,0,1,.288,1.062,1.9,1.9,0,0,1-.3,1.058,2.025,2.025,0,0,1-.824.72,2.659,2.659,0,0,1-1.188.257ZM37.845,22V15.7h1.233V22Zm3.465,0-1.458-2.529L40.8,18.8,42.7,22Zm2.43,0V15.7h1.233V22Zm.936,0V20.875h3.087V22Zm0-2.646v-1.1h2.673v1.1Zm0-2.529V15.7h3.051v1.125Z" transform="translate(27.42 59.67)" fill="#fff"/>
        </g>
      </g>
    </g>
  </g>
</svg>
